{
    "asset" : {
        "generator" : "Khronos glTF Blender I/O v1.7.33",
        "version" : "2.0"
    },
    "scene" : 0,
    "scenes" : [
        {
            "name" : "Scene",
            "nodes" : [
                0,
                1,
                2,
                3
            ]
        }
    ],
    "nodes" : [
        {
            "mesh" : 0,
            "name" : "Brain_Part_02",
            "rotation" : [
                0.5914695262908936,
                0,
                0,
                0.8063273429870605
            ],
            "scale" : [
                3.586127758026123,
                3.5861282348632812,
                3.5861282348632812
            ],
            "translation" : [
                -0.06685951352119446,
                0.8691060543060303,
                -0.11056855320930481
            ]
        },
        {
            "mesh" : 1,
            "name" : "Brain_Part_04",
            "rotation" : [
                0.5914695262908936,
                0,
                0,
                0.8063273429870605
            ],
            "scale" : [
                3.586127758026123,
                3.5861282348632812,
                3.5861282348632812
            ],
            "translation" : [
                0.7723300457000732,
                2.3882241249084473,
                0.2786604166030884
            ]
        },
        {
            "mesh" : 2,
            "name" : "Brain_Part_05",
            "rotation" : [
                0.5914695262908936,
                0,
                0,
                0.8063273429870605
            ],
            "scale" : [
                3.586127758026123,
                3.5861282348632812,
                3.5861282348632812
            ],
            "translation" : [
                -0.04121240973472595,
                1.8715808391571045,
                0.5972162485122681
            ]
        },
        {
            "mesh" : 3,
            "name" : "Brain_Part_06",
            "rotation" : [
                0.5914695262908936,
                0,
                0,
                0.8063273429870605
            ],
            "scale" : [
                3.586127758026123,
                3.5861282348632812,
                3.5861282348632812
            ],
            "translation" : [
                -0.7652714252471924,
                2.3882241249084473,
                0.2786604166030884
            ]
        }
    ],
    "materials" : [
        {
            "doubleSided" : true,
            "name" : "BRAIN_TEXTURE_blinn2",
            "pbrMetallicRoughness" : {
                "baseColorFactor" : [
                    0.7484014630317688,
                    0.23608838021755219,
                    0.2950500547885895,
                    1
                ],
                "metallicFactor" : 0,
                "roughnessFactor" : 0.5
            }
        }
    ],
    "meshes" : [
        {
            "name" : "Untitled.005",
            "primitives" : [
                {
                    "attributes" : {
                        "POSITION" : 0,
                        "NORMAL" : 1,
                        "TEXCOORD_0" : 2
                    },
                    "indices" : 3,
                    "material" : 0
                }
            ]
        },
        {
            "name" : "Untitled.003",
            "primitives" : [
                {
                    "attributes" : {
                        "POSITION" : 4,
                        "NORMAL" : 5,
                        "TEXCOORD_0" : 6,
                        "TEXCOORD_1" : 7
                    },
                    "indices" : 8,
                    "material" : 0
                }
            ]
        },
        {
            "name" : "Untitled.004",
            "primitives" : [
                {
                    "attributes" : {
                        "POSITION" : 9,
                        "NORMAL" : 10,
                        "TEXCOORD_0" : 11
                    },
                    "indices" : 12,
                    "material" : 0
                }
            ]
        },
        {
            "name" : "Untitled.002",
            "primitives" : [
                {
                    "attributes" : {
                        "POSITION" : 13,
                        "NORMAL" : 14,
                        "TEXCOORD_0" : 15,
                        "TEXCOORD_1" : 16
                    },
                    "indices" : 17,
                    "material" : 0
                }
            ]
        }
    ],
    "accessors" : [
        {
            "bufferView" : 0,
            "componentType" : 5126,
            "count" : 6905,
            "max" : [
                0.43039414286613464,
                0.21614718437194824,
                0.14938054978847504
            ],
            "min" : [
                -0.43039992451667786,
                -0.24971222877502441,
                -0.22577203810214996
            ],
            "type" : "VEC3"
        },
        {
            "bufferView" : 1,
            "componentType" : 5126,
            "count" : 6905,
            "type" : "VEC3"
        },
        {
            "bufferView" : 2,
            "componentType" : 5126,
            "count" : 6905,
            "type" : "VEC2"
        },
        {
            "bufferView" : 3,
            "componentType" : 5123,
            "count" : 40734,
            "type" : "SCALAR"
        },
        {
            "bufferView" : 4,
            "componentType" : 5126,
            "count" : 19991,
            "max" : [
                0.31485381722450256,
                0.6792977452278137,
                0.3772370219230652
            ],
            "min" : [
                -0.22079068422317505,
                -0.636924684047699,
                -0.4600585103034973
            ],
            "type" : "VEC3"
        },
        {
            "bufferView" : 5,
            "componentType" : 5126,
            "count" : 19991,
            "type" : "VEC3"
        },
        {
            "bufferView" : 6,
            "componentType" : 5126,
            "count" : 19991,
            "type" : "VEC2"
        },
        {
            "bufferView" : 7,
            "componentType" : 5126,
            "count" : 19991,
            "type" : "VEC2"
        },
        {
            "bufferView" : 8,
            "componentType" : 5123,
            "count" : 114666,
            "type" : "SCALAR"
        },
        {
            "bufferView" : 9,
            "componentType" : 5126,
            "count" : 1664,
            "max" : [
                0.3363904058933258,
                0.2945702075958252,
                0.49973374605178833
            ],
            "min" : [
                -0.3363848626613617,
                -0.2597935199737549,
                -0.31691664457321167
            ],
            "type" : "VEC3"
        },
        {
            "bufferView" : 10,
            "componentType" : 5126,
            "count" : 1664,
            "type" : "VEC3"
        },
        {
            "bufferView" : 11,
            "componentType" : 5126,
            "count" : 1664,
            "type" : "VEC2"
        },
        {
            "bufferView" : 12,
            "componentType" : 5123,
            "count" : 9714,
            "type" : "SCALAR"
        },
        {
            "bufferView" : 13,
            "componentType" : 5126,
            "count" : 19991,
            "max" : [
                0.22079068422317505,
                0.6792977452278137,
                0.3772370219230652
            ],
            "min" : [
                -0.31485381722450256,
                -0.636924684047699,
                -0.4600585103034973
            ],
            "type" : "VEC3"
        },
        {
            "bufferView" : 14,
            "componentType" : 5126,
            "count" : 19991,
            "type" : "VEC3"
        },
        {
            "bufferView" : 15,
            "componentType" : 5126,
            "count" : 19991,
            "type" : "VEC2"
        },
        {
            "bufferView" : 16,
            "componentType" : 5126,
            "count" : 19991,
            "type" : "VEC2"
        },
        {
            "bufferView" : 17,
            "componentType" : 5123,
            "count" : 114666,
            "type" : "SCALAR"
        }
    ],
    "bufferViews" : [
        {
            "buffer" : 0,
            "byteLength" : 82860,
            "byteOffset" : 0
        },
        {
            "buffer" : 0,
            "byteLength" : 82860,
            "byteOffset" : 82860
        },
        {
            "buffer" : 0,
            "byteLength" : 55240,
            "byteOffset" : 165720
        },
        {
            "buffer" : 0,
            "byteLength" : 81468,
            "byteOffset" : 220960
        },
        {
            "buffer" : 0,
            "byteLength" : 239892,
            "byteOffset" : 302428
        },
        {
            "buffer" : 0,
            "byteLength" : 239892,
            "byteOffset" : 542320
        },
        {
            "buffer" : 0,
            "byteLength" : 159928,
            "byteOffset" : 782212
        },
        {
            "buffer" : 0,
            "byteLength" : 159928,
            "byteOffset" : 942140
        },
        {
            "buffer" : 0,
            "byteLength" : 229332,
            "byteOffset" : 1102068
        },
        {
            "buffer" : 0,
            "byteLength" : 19968,
            "byteOffset" : 1331400
        },
        {
            "buffer" : 0,
            "byteLength" : 19968,
            "byteOffset" : 1351368
        },
        {
            "buffer" : 0,
            "byteLength" : 13312,
            "byteOffset" : 1371336
        },
        {
            "buffer" : 0,
            "byteLength" : 19428,
            "byteOffset" : 1384648
        },
        {
            "buffer" : 0,
            "byteLength" : 239892,
            "byteOffset" : 1404076
        },
        {
            "buffer" : 0,
            "byteLength" : 239892,
            "byteOffset" : 1643968
        },
        {
            "buffer" : 0,
            "byteLength" : 159928,
            "byteOffset" : 1883860
        },
        {
            "buffer" : 0,
            "byteLength" : 159928,
            "byteOffset" : 2043788
        },
        {
            "buffer" : 0,
            "byteLength" : 229332,
            "byteOffset" : 2203716
        }
    ],
    "buffers" : [
        {
            "byteLength" : 2433048,
            "uri" : "data:application/octet-stream;base64,"
        }
    ]
}
