{
    "asset" : {
        "generator" : "Khronos glTF Blender I/O v1.7.33",
        "version" : "2.0"
    },
    "scene" : 0,
    "scenes" : [
        {
            "name" : "Scene",
            "nodes" : [
                0,
                1,
                2,
                3
            ]
        }
    ],
    "nodes" : [
        {
            "mesh" : 0,
            "name" : "Brain_Part_02",
            "rotation" : [
                0.42525559663772583,
                -0.572562038898468,
                0.4615296423435211,
                0.527561366558075
            ],
            "scale" : [
                3.586127758026123,
                3.5861282348632812,
                3.5861282348632812
            ],
            "translation" : [
                -0.030163252726197243,
                3.4861741065979004,
                -0.015909191220998764
            ]
        },
        {
            "mesh" : 1,
            "name" : "Brain_Part_04",
            "rotation" : [
                0.42525559663772583,
                -0.572562038898468,
                0.4615296423435211,
                0.527561366558075
            ],
            "scale" : [
                3.586127758026123,
                3.5861282348632812,
                3.5861282348632812
            ],
            "translation" : [
                -0.030163252726197243,
                3.4861741065979004,
                -0.015909191220998764
            ]
        },
        {
            "mesh" : 2,
            "name" : "Brain_Part_05",
            "rotation" : [
                0.42525559663772583,
                -0.572562038898468,
                0.4615296423435211,
                0.527561366558075
            ],
            "scale" : [
                3.586127758026123,
                3.5861282348632812,
                3.5861282348632812
            ],
            "translation" : [
                -0.030163193121552467,
                3.4861741065979004,
                -0.015909191220998764
            ]
        },
        {
            "mesh" : 3,
            "name" : "Brain_Part_06",
            "rotation" : [
                0.42525559663772583,
                -0.572562038898468,
                0.4615296423435211,
                0.527561366558075
            ],
            "scale" : [
                3.586127758026123,
                3.5861282348632812,
                3.5861282348632812
            ],
            "translation" : [
                -0.030163196846842766,
                3.4861741065979004,
                -0.01590908318758011
            ]
        }
    ],
    "animations" : [
        {
            "channels" : [
                {
                    "sampler" : 0,
                    "target" : {
                        "node" : 0,
                        "path" : "translation"
                    }
                },
                {
                    "sampler" : 1,
                    "target" : {
                        "node" : 0,
                        "path" : "rotation"
                    }
                },
                {
                    "sampler" : 2,
                    "target" : {
                        "node" : 0,
                        "path" : "scale"
                    }
                }
            ],
            "name" : "Brain_Part_02Action.003",
            "samplers" : [
                {
                    "input" : 18,
                    "interpolation" : "LINEAR",
                    "output" : 19
                },
                {
                    "input" : 18,
                    "interpolation" : "LINEAR",
                    "output" : 20
                },
                {
                    "input" : 21,
                    "interpolation" : "LINEAR",
                    "output" : 22
                }
            ]
        },
        {
            "channels" : [
                {
                    "sampler" : 0,
                    "target" : {
                        "node" : 1,
                        "path" : "translation"
                    }
                },
                {
                    "sampler" : 1,
                    "target" : {
                        "node" : 1,
                        "path" : "rotation"
                    }
                },
                {
                    "sampler" : 2,
                    "target" : {
                        "node" : 1,
                        "path" : "scale"
                    }
                }
            ],
            "name" : "Brain_Part_04Action.003",
            "samplers" : [
                {
                    "input" : 18,
                    "interpolation" : "LINEAR",
                    "output" : 23
                },
                {
                    "input" : 18,
                    "interpolation" : "LINEAR",
                    "output" : 24
                },
                {
                    "input" : 21,
                    "interpolation" : "LINEAR",
                    "output" : 25
                }
            ]
        },
        {
            "channels" : [
                {
                    "sampler" : 0,
                    "target" : {
                        "node" : 2,
                        "path" : "translation"
                    }
                },
                {
                    "sampler" : 1,
                    "target" : {
                        "node" : 2,
                        "path" : "rotation"
                    }
                },
                {
                    "sampler" : 2,
                    "target" : {
                        "node" : 2,
                        "path" : "scale"
                    }
                }
            ],
            "name" : "Brain_Part_05Action.003",
            "samplers" : [
                {
                    "input" : 18,
                    "interpolation" : "LINEAR",
                    "output" : 26
                },
                {
                    "input" : 18,
                    "interpolation" : "LINEAR",
                    "output" : 27
                },
                {
                    "input" : 21,
                    "interpolation" : "LINEAR",
                    "output" : 28
                }
            ]
        },
        {
            "channels" : [
                {
                    "sampler" : 0,
                    "target" : {
                        "node" : 3,
                        "path" : "translation"
                    }
                },
                {
                    "sampler" : 1,
                    "target" : {
                        "node" : 3,
                        "path" : "rotation"
                    }
                },
                {
                    "sampler" : 2,
                    "target" : {
                        "node" : 3,
                        "path" : "scale"
                    }
                }
            ],
            "name" : "Brain_Part_06Action.003",
            "samplers" : [
                {
                    "input" : 18,
                    "interpolation" : "LINEAR",
                    "output" : 29
                },
                {
                    "input" : 18,
                    "interpolation" : "LINEAR",
                    "output" : 30
                },
                {
                    "input" : 21,
                    "interpolation" : "LINEAR",
                    "output" : 31
                }
            ]
        }
    ],
    "materials" : [
        {
            "doubleSided" : true,
            "name" : "BRAIN_TEXTURE_blinn2",
            "pbrMetallicRoughness" : {
                "baseColorFactor" : [
                    0.7484014630317688,
                    0.23608838021755219,
                    0.2950500547885895,
                    1
                ],
                "metallicFactor" : 0,
                "roughnessFactor" : 0.5
            }
        }
    ],
    "meshes" : [
        {
            "name" : "Untitled.005",
            "primitives" : [
                {
                    "attributes" : {
                        "POSITION" : 0,
                        "NORMAL" : 1,
                        "TEXCOORD_0" : 2
                    },
                    "indices" : 3,
                    "material" : 0
                }
            ]
        },
        {
            "name" : "Untitled.003",
            "primitives" : [
                {
                    "attributes" : {
                        "POSITION" : 4,
                        "NORMAL" : 5,
                        "TEXCOORD_0" : 6,
                        "TEXCOORD_1" : 7
                    },
                    "indices" : 8,
                    "material" : 0
                }
            ]
        },
        {
            "name" : "Untitled.004",
            "primitives" : [
                {
                    "attributes" : {
                        "POSITION" : 9,
                        "NORMAL" : 10,
                        "TEXCOORD_0" : 11
                    },
                    "indices" : 12,
                    "material" : 0
                }
            ]
        },
        {
            "name" : "Untitled.002",
            "primitives" : [
                {
                    "attributes" : {
                        "POSITION" : 13,
                        "NORMAL" : 14,
                        "TEXCOORD_0" : 15,
                        "TEXCOORD_1" : 16
                    },
                    "indices" : 17,
                    "material" : 0
                }
            ]
        }
    ],
    "accessors" : [
        {
            "bufferView" : 0,
            "componentType" : 5126,
            "count" : 6905,
            "max" : [
                0.4344509243965149,
                0.015222400426864624,
                0.414506733417511
            ],
            "min" : [
                -0.4263431429862976,
                -0.45063701272010803,
                0.039354145526885986
            ],
            "type" : "VEC3"
        },
        {
            "bufferView" : 1,
            "componentType" : 5126,
            "count" : 6905,
            "type" : "VEC3"
        },
        {
            "bufferView" : 2,
            "componentType" : 5126,
            "count" : 6905,
            "type" : "VEC2"
        },
        {
            "bufferView" : 3,
            "componentType" : 5123,
            "count" : 40734,
            "type" : "SCALAR"
        },
        {
            "bufferView" : 4,
            "componentType" : 5126,
            "count" : 19991,
            "max" : [
                0.5529202222824097,
                0.7091208696365356,
                0.2709064781665802
            ],
            "min" : [
                0.017275676131248474,
                -0.607101559638977,
                -0.5663890242576599
            ],
            "type" : "VEC3"
        },
        {
            "bufferView" : 5,
            "componentType" : 5126,
            "count" : 19991,
            "type" : "VEC3"
        },
        {
            "bufferView" : 6,
            "componentType" : 5126,
            "count" : 19991,
            "type" : "VEC2"
        },
        {
            "bufferView" : 7,
            "componentType" : 5126,
            "count" : 19991,
            "type" : "VEC2"
        },
        {
            "bufferView" : 8,
            "componentType" : 5123,
            "count" : 114666,
            "type" : "SCALAR"
        },
        {
            "bufferView" : 9,
            "componentType" : 5126,
            "count" : 1664,
            "max" : [
                0.3475979268550873,
                0.36585551500320435,
                0.5574969053268433
            ],
            "min" : [
                -0.3251773416996002,
                -0.18850822746753693,
                -0.25915345549583435
            ],
            "type" : "VEC3"
        },
        {
            "bufferView" : 10,
            "componentType" : 5126,
            "count" : 1664,
            "type" : "VEC3"
        },
        {
            "bufferView" : 11,
            "componentType" : 5126,
            "count" : 1664,
            "type" : "VEC2"
        },
        {
            "bufferView" : 12,
            "componentType" : 5123,
            "count" : 9714,
            "type" : "SCALAR"
        },
        {
            "bufferView" : 13,
            "componentType" : 5126,
            "count" : 19991,
            "max" : [
                0.0300929993391037,
                0.7091208696365356,
                0.2709064781665802
            ],
            "min" : [
                -0.5055515170097351,
                -0.607101559638977,
                -0.5663890242576599
            ],
            "type" : "VEC3"
        },
        {
            "bufferView" : 14,
            "componentType" : 5126,
            "count" : 19991,
            "type" : "VEC3"
        },
        {
            "bufferView" : 15,
            "componentType" : 5126,
            "count" : 19991,
            "type" : "VEC2"
        },
        {
            "bufferView" : 16,
            "componentType" : 5126,
            "count" : 19991,
            "type" : "VEC2"
        },
        {
            "bufferView" : 17,
            "componentType" : 5123,
            "count" : 114666,
            "type" : "SCALAR"
        },
        {
            "bufferView" : 18,
            "componentType" : 5126,
            "count" : 73,
            "max" : [
                3
            ],
            "min" : [
                0
            ],
            "type" : "SCALAR"
        },
        {
            "bufferView" : 19,
            "componentType" : 5126,
            "count" : 73,
            "type" : "VEC3"
        },
        {
            "bufferView" : 20,
            "componentType" : 5126,
            "count" : 73,
            "type" : "VEC4"
        },
        {
            "bufferView" : 21,
            "componentType" : 5126,
            "count" : 2,
            "max" : [
                3
            ],
            "min" : [
                0
            ],
            "type" : "SCALAR"
        },
        {
            "bufferView" : 22,
            "componentType" : 5126,
            "count" : 2,
            "type" : "VEC3"
        },
        {
            "bufferView" : 23,
            "componentType" : 5126,
            "count" : 73,
            "type" : "VEC3"
        },
        {
            "bufferView" : 24,
            "componentType" : 5126,
            "count" : 73,
            "type" : "VEC4"
        },
        {
            "bufferView" : 25,
            "componentType" : 5126,
            "count" : 2,
            "type" : "VEC3"
        },
        {
            "bufferView" : 26,
            "componentType" : 5126,
            "count" : 73,
            "type" : "VEC3"
        },
        {
            "bufferView" : 27,
            "componentType" : 5126,
            "count" : 73,
            "type" : "VEC4"
        },
        {
            "bufferView" : 28,
            "componentType" : 5126,
            "count" : 2,
            "type" : "VEC3"
        },
        {
            "bufferView" : 29,
            "componentType" : 5126,
            "count" : 73,
            "type" : "VEC3"
        },
        {
            "bufferView" : 30,
            "componentType" : 5126,
            "count" : 73,
            "type" : "VEC4"
        },
        {
            "bufferView" : 31,
            "componentType" : 5126,
            "count" : 2,
            "type" : "VEC3"
        }
    ],
    "bufferViews" : [
        {
            "buffer" : 0,
            "byteLength" : 82860,
            "byteOffset" : 0
        },
        {
            "buffer" : 0,
            "byteLength" : 82860,
            "byteOffset" : 82860
        },
        {
            "buffer" : 0,
            "byteLength" : 55240,
            "byteOffset" : 165720
        },
        {
            "buffer" : 0,
            "byteLength" : 81468,
            "byteOffset" : 220960
        },
        {
            "buffer" : 0,
            "byteLength" : 239892,
            "byteOffset" : 302428
        },
        {
            "buffer" : 0,
            "byteLength" : 239892,
            "byteOffset" : 542320
        },
        {
            "buffer" : 0,
            "byteLength" : 159928,
            "byteOffset" : 782212
        },
        {
            "buffer" : 0,
            "byteLength" : 159928,
            "byteOffset" : 942140
        },
        {
            "buffer" : 0,
            "byteLength" : 229332,
            "byteOffset" : 1102068
        },
        {
            "buffer" : 0,
            "byteLength" : 19968,
            "byteOffset" : 1331400
        },
        {
            "buffer" : 0,
            "byteLength" : 19968,
            "byteOffset" : 1351368
        },
        {
            "buffer" : 0,
            "byteLength" : 13312,
            "byteOffset" : 1371336
        },
        {
            "buffer" : 0,
            "byteLength" : 19428,
            "byteOffset" : 1384648
        },
        {
            "buffer" : 0,
            "byteLength" : 239892,
            "byteOffset" : 1404076
        },
        {
            "buffer" : 0,
            "byteLength" : 239892,
            "byteOffset" : 1643968
        },
        {
            "buffer" : 0,
            "byteLength" : 159928,
            "byteOffset" : 1883860
        },
        {
            "buffer" : 0,
            "byteLength" : 159928,
            "byteOffset" : 2043788
        },
        {
            "buffer" : 0,
            "byteLength" : 229332,
            "byteOffset" : 2203716
        },
        {
            "buffer" : 0,
            "byteLength" : 292,
            "byteOffset" : 2433048
        },
        {
            "buffer" : 0,
            "byteLength" : 876,
            "byteOffset" : 2433340
        },
        {
            "buffer" : 0,
            "byteLength" : 1168,
            "byteOffset" : 2434216
        },
        {
            "buffer" : 0,
            "byteLength" : 8,
            "byteOffset" : 2435384
        },
        {
            "buffer" : 0,
            "byteLength" : 24,
            "byteOffset" : 2435392
        },
        {
            "buffer" : 0,
            "byteLength" : 876,
            "byteOffset" : 2435416
        },
        {
            "buffer" : 0,
            "byteLength" : 1168,
            "byteOffset" : 2436292
        },
        {
            "buffer" : 0,
            "byteLength" : 24,
            "byteOffset" : 2437460
        },
        {
            "buffer" : 0,
            "byteLength" : 876,
            "byteOffset" : 2437484
        },
        {
            "buffer" : 0,
            "byteLength" : 1168,
            "byteOffset" : 2438360
        },
        {
            "buffer" : 0,
            "byteLength" : 24,
            "byteOffset" : 2439528
        },
        {
            "buffer" : 0,
            "byteLength" : 876,
            "byteOffset" : 2439552
        },
        {
            "buffer" : 0,
            "byteLength" : 1168,
            "byteOffset" : 2440428
        },
        {
            "buffer" : 0,
            "byteLength" : 24,
            "byteOffset" : 2441596
        }
    ],
    "buffers" : [
        {
            "byteLength" : 2441620,
            "uri" : "data:application/octet-stream;base64,"
        }
    ]
}
